<svg width="143" height="33" viewBox="0 0 143 33" fill="none" xmlns="http://www.w3.org/2000/svg">
<path fill-rule="evenodd" clip-rule="evenodd" d="M5.52323 21.6884C5.52323 22.1078 5.58115 22.6007 5.71447 23.1594C5.84343 23.722 6.1068 24.255 6.47946 24.7569C6.86086 25.264 7.39963 25.6924 8.1209 26.0408C8.82579 26.3905 9.76672 26.5621 10.9317 26.5621C11.5743 26.5621 12.2027 26.5028 12.8321 26.3983C13.4638 26.286 14.0299 26.0886 14.5512 25.8086C15.0561 25.5298 15.4681 25.1376 15.785 24.6305C16.1074 24.1246 16.2669 23.4691 16.2669 22.6523C16.2669 22.0678 16.1598 21.5787 15.9369 21.1839C15.6965 20.7852 15.3872 20.4626 14.9741 20.1955C14.5512 19.9322 14.0627 19.6974 13.4955 19.5038C12.9228 19.3103 12.3076 19.1116 11.6377 18.9116L8.89354 18.1593C7.86081 17.878 6.84556 17.5735 5.87293 17.2328C4.9014 16.8999 4.04024 16.4108 3.29274 15.7863C2.54305 15.1566 1.94308 14.323 1.47754 13.2972C1.01526 12.2868 0.781396 10.9397 0.781396 9.29062C0.781396 8.7306 0.841503 8.10606 0.939858 7.43894C1.05023 6.76667 1.23055 6.08922 1.49393 5.39888C1.75512 4.71241 2.11903 4.04013 2.57912 3.3872C3.04795 2.72912 3.64026 2.1562 4.37902 1.65554C5.1145 1.17423 5.98878 0.770347 7.01277 0.464531C8.03457 0.156134 9.23232 0 10.6093 0C12.5469 0 14.1665 0.338075 15.4528 1.00906C16.7368 1.68263 17.7499 2.51363 18.5149 3.49172C19.2755 4.4724 19.8045 5.52663 20.1159 6.66602C20.4164 7.79638 20.5727 8.83125 20.5727 9.75257H15.4528C15.4014 9.42094 15.3216 8.98867 15.2167 8.46736C15.1129 7.95251 14.8801 7.45572 14.5239 6.97958C14.1665 6.49956 13.6452 6.08922 12.9819 5.74083C12.3032 5.39114 11.3787 5.21178 10.2159 5.21178C9.71864 5.21178 9.20063 5.27888 8.6706 5.39888C8.13293 5.52663 7.65863 5.73696 7.22259 6.0118C6.79748 6.29052 6.44449 6.66602 6.1833 7.12668C5.89916 7.59121 5.76911 8.15381 5.76911 8.83125C5.76911 9.42094 5.85108 9.90225 6.03249 10.2765C6.20734 10.6558 6.4434 10.9591 6.70896 11.1836C6.98982 11.4068 7.27942 11.5733 7.60181 11.6868C7.91982 11.7952 8.21707 11.8959 8.47171 11.981L14.7031 13.7901C15.5752 14.0392 16.421 14.3476 17.2319 14.7114C18.0373 15.0779 18.7499 15.5657 19.3629 16.1824C19.987 16.8005 20.4776 17.5735 20.8361 18.4974C21.2153 19.4148 21.3945 20.5542 21.3945 21.8975C21.3945 23.4162 21.1989 24.7117 20.811 25.7866C20.4121 26.8641 19.9126 27.7712 19.2755 28.4977C18.6471 29.228 17.9554 29.8087 17.1904 30.241C16.4363 30.6835 15.6779 31.0061 14.9337 31.232C14.1851 31.4565 13.4955 31.5984 12.8463 31.6733C12.207 31.7378 11.7076 31.7778 11.3175 31.7778C8.99408 31.7778 7.11549 31.4281 5.68169 30.7287C4.24242 30.0216 3.12772 29.1712 2.34525 28.1402C1.56933 27.1221 1.04477 26.0189 0.781396 24.8447C0.523486 23.6614 0.394531 22.611 0.394531 21.6884H5.52323Z" fill="white"/>
<path fill-rule="evenodd" clip-rule="evenodd" d="M46.3945 20.3905C46.3945 22.3914 46.1549 24.1037 45.6808 25.5364C45.2141 26.9703 44.5371 28.154 43.6476 29.0759C42.7664 30.0029 41.6917 30.6873 40.436 31.1215C39.1802 31.553 37.7685 31.7778 36.203 31.7778C35.6306 31.7778 35.0017 31.7241 34.3194 31.6271C33.6402 31.5275 32.9517 31.3321 32.2537 31.0614C31.5442 30.7754 30.8462 30.3949 30.1775 29.934C29.4952 29.4756 28.882 28.8703 28.3294 28.1055C27.6639 27.1772 27.1773 26.102 26.8916 24.8839C26.6049 23.6606 26.4353 22.2867 26.3945 20.7723V0H31.6823V20.3561C31.6823 21.4184 31.7953 22.3327 32.0224 23.0899C32.2537 23.8471 32.5708 24.4753 32.9747 24.9656C33.3744 25.4559 33.8453 25.8198 34.3885 26.0625C34.9326 26.2961 35.4956 26.4213 36.1026 26.4213C37.892 26.4213 39.1802 25.9207 39.9494 24.9196C40.7248 23.9198 41.1141 22.5025 41.1141 20.6485V0H46.3945V20.3905Z" fill="white"/>
<path fill-rule="evenodd" clip-rule="evenodd" d="M58.9755 31.7778H53.3945V0H72.3945V5.53241H58.9755V13.1745H70.7212V18.5611H58.9755V31.7778Z" fill="white"/>
<path fill-rule="evenodd" clip-rule="evenodd" d="M82.9755 31.7778H77.3945V0H96.3945V5.53241H82.9755V13.1745H94.7223V18.5611H82.9755V31.7778Z" fill="white"/>
<path fill-rule="evenodd" clip-rule="evenodd" d="M104.396 31.7778H98.3945L104.387 0H110.395L104.396 31.7778Z" fill="white"/>
<path fill-rule="evenodd" clip-rule="evenodd" d="M114.562 0H127.565V1.23915H122.371L128.439 13.8301L135.628 1.23915H131.024V0H140.892V1.23915H137.018L129.184 15.1446L138.037 31.7622H142.395V33H129.069V31.7622H133.27L126.867 19.3099L119.653 31.7622H124.466V33H114.395V31.7622H118.231L126.093 18.0364L117.661 1.23915H114.562V0Z" fill="white"/>
</svg>
